# xmcd CD database file
#
# Track frame offsets:
#	150
#	32113
#	88694
#	113424
#	128222
#	152524
#	181290
#
# Disc length: 2704 seconds
#
# Revision: 0
# Processed by: cddbd v1.5.2PL0 Copyright (c) Steve Scherf et al.
# Submitted via: CDex 1.51
#
DISCID=4c0a8e07
DTITLE=Giampiero Rigosi e Ferruccio Filipazzi - Allucinéscion. Una Storia di Jazz
DYEAR=2008
DGENRE=Jazz
TTITLE0=Bluesiesta
TTITLE1=Air
TTITLE2=RainyMay
TTITLE3=End of Day
TTITLE4=Lorenca
TTITLE5=Into the Light
TTITLE6=B. Man Song
EXTD=YEAR: 2008
EXTT0=
EXTT1=
EXTT2=
EXTT3=
EXTT4=
EXTT5=
EXTT6=
PLAYORDER=
